<?xml version="1.0" standalone="no"?>
<!DOCTYPE svg PUBLIC "-//W3C//DTD SVG 20010904//EN"
 "http://www.w3.org/TR/2001/REC-SVG-20010904/DTD/svg10.dtd">
<svg version="1.0" xmlns="http://www.w3.org/2000/svg"
 width="192.000000pt" height="192.000000pt" viewBox="0 0 192.000000 192.000000"
 preserveAspectRatio="xMidYMid meet">
<metadata>
Created by potrace 1.11, written by Peter Selinger 2001-2013
</metadata>
<g transform="translate(0.000000,192.000000) scale(0.100000,-0.100000)"
fill="#000000" stroke="none">
<path d="M124 1236 c-24 -20 -36 -52 -36 -89 1 -9 -2 -16 -6 -13 -4 2 -7 -27
-6 -65 1 -39 -3 -69 -9 -69 -5 0 -4 -6 2 -14 7 -8 8 -17 3 -20 -10 -6 -7 -70
4 -88 5 -8 1 -9 -11 -4 -15 5 -16 4 -5 -9 17 -20 21 -105 5 -99 -7 3 -12 -2
-12 -10 0 -8 6 -12 14 -9 7 3 14 1 14 -3 7 -47 6 -55 -10 -50 -11 4 -10 2 3
-9 11 -8 14 -15 8 -15 -7 0 -12 -5 -12 -11 0 -6 7 -8 16 -5 14 5 15 4 4 -9
-10 -12 -10 -15 4 -15 10 0 15 -4 11 -10 -3 -5 -13 -6 -22 -3 -15 6 -16 5 -3
-9 8 -9 20 -13 25 -10 6 3 4 -2 -4 -11 -16 -20 -8 -22 22 -5 21 10 21 10 7 -7
-11 -14 -12 -19 -2 -22 6 -3 9 -10 5 -16 -5 -8 -2 -8 8 0 9 7 26 14 40 17 13
2 23 9 21 15 -2 10 11 15 30 12 4 0 5 6 2 14 -5 11 -1 14 12 9 18 -5 18 -5 0
10 -11 9 -15 16 -9 16 16 0 44 -30 38 -40 -3 -5 10 -7 28 -6 35 3 45 -15 24
-42 -7 -9 -6 -11 7 -6 9 3 16 15 16 25 0 23 13 25 30 4 8 -9 8 -15 2 -15 -6 0
-13 5 -15 10 -3 6 -4 5 -3 -2 2 -7 9 -13 17 -13 8 0 13 6 11 13 -1 6 2 12 8
13 39 4 54 2 58 -11 3 -13 2 -13 -7 0 -6 8 -11 10 -11 4 0 -6 8 -18 17 -25 11
-10 14 -10 9 -1 -4 7 -1 12 8 12 9 0 16 5 16 11 0 5 -4 7 -10 4 -5 -3 -10 -2
-10 3 0 4 24 8 53 8 33 -1 51 -5 50 -13 -4 -21 26 -22 54 0 15 12 23 15 16 6
-10 -12 -8 -17 9 -28 11 -7 17 -8 13 -2 -3 6 -1 11 4 11 6 0 11 5 11 11 0 8
-6 7 -17 -2 -16 -12 -17 -12 -6 2 7 9 9 20 5 25 -4 4 0 3 10 -4 13 -10 17 -10
20 0 3 9 6 9 12 0 4 -7 2 -12 -3 -12 -6 0 -11 -5 -11 -11 0 -6 6 -9 14 -6 8 3
28 2 45 -3 24 -7 29 -5 24 6 -3 9 -13 12 -23 9 -10 -3 -21 -2 -23 2 -3 5 16 8
41 8 43 0 47 -2 45 -23 -2 -13 1 -21 7 -17 6 3 10 15 10 26 0 23 21 21 28 -2
3 -11 2 -11 -7 1 -6 8 -11 10 -11 4 0 -6 8 -18 17 -25 11 -10 14 -10 9 -1 -4
6 -3 12 1 12 5 0 15 -6 23 -12 8 -7 7 -3 -3 8 -23 27 -15 30 88 29 54 0 79 -4
78 -12 -4 -21 26 -22 54 0 15 12 23 15 16 6 -10 -12 -8 -17 9 -28 11 -7 17 -8
13 -2 -3 6 -1 11 4 11 6 0 11 5 11 11 0 8 -6 7 -17 -2 -16 -12 -17 -12 -6 2 7
9 10 19 6 23 -4 4 0 4 10 0 9 -3 17 -12 17 -19 0 -7 7 -16 16 -19 14 -5 15 -4
4 9 -11 13 -10 14 5 9 11 -4 16 -3 12 2 -3 6 22 9 61 9 37 0 70 4 74 10 5 6 8
5 8 -4 0 -11 5 -9 22 5 19 15 20 16 9 1 -8 -10 -9 -17 -3 -17 6 0 12 -6 15
-12 2 -7 3 -5 2 4 -2 10 4 23 13 30 12 10 14 10 8 1 -4 -7 -2 -21 4 -30 11
-16 11 -16 6 -1 -5 18 8 31 35 33 11 1 15 -4 12 -12 -4 -10 -9 -11 -18 -3 -7
6 -15 7 -18 3 -3 -5 5 -13 18 -20 16 -7 23 -7 22 -1 -1 6 4 13 12 16 9 3 11 0
6 -9 -5 -9 -1 -7 11 3 13 12 24 14 36 7 13 -7 16 -5 14 15 -3 21 1 23 21 20
14 -3 22 -1 19 5 -7 10 27 8 59 -4 l20 -8 -20 17 c-11 10 -14 15 -7 11 6 -3
12 0 12 7 1 7 7 2 14 -11 11 -20 14 -21 19 -6 10 25 8 32 -4 15 -9 -13 -10
-13 -6 0 2 9 14 14 31 13 15 -1 24 1 22 6 -3 4 2 8 10 8 8 0 13 -6 10 -12 -2
-6 2 -12 9 -12 7 0 10 8 8 18 -3 9 1 20 8 24 8 5 10 4 5 -3 -4 -7 -1 -12 9
-12 10 0 15 6 12 13 -3 8 3 14 15 14 17 2 18 -1 7 -15 -11 -15 -11 -15 1 -4 8
7 15 18 15 25 1 7 6 11 13 10 7 -2 9 4 5 14 -4 10 -2 14 4 10 5 -3 10 -1 11 6
1 7 6 32 11 57 5 25 9 90 7 145 -4 113 -19 156 -65 180 -87 44 -347 114 -413
110 -27 -1 -48 1 -48 6 0 5 -222 9 -510 9 l-510 0 -52 -25 c-59 -28 -68 -30
-68 -12 -1 43 -66 58 -106 23z m1422 -638 c5 -7 2 -9 -8 -5 -9 3 -20 1 -26 -5
-6 -6 -12 -6 -17 3 -5 8 -4 10 3 5 7 -4 12 -2 12 3 0 15 27 14 36 -1z m-1350
-31 c4 -3 -5 -4 -20 -1 -16 3 -26 0 -26 -7 0 -7 -3 -10 -6 -6 -3 3 -3 10 1 16
6 11 39 10 51 -2z m420 1 c4 -6 3 -8 -4 -4 -5 3 -13 0 -15 -6 -3 -8 -6 -6 -6
5 -1 19 14 23 25 5z m480 0 c4 -6 3 -8 -4 -4 -5 3 -13 0 -15 -6 -3 -8 -6 -6
-6 5 -1 19 14 23 25 5z"/>
<path d="M55 1060 c3 -5 8 -10 11 -10 2 0 4 5 4 10 0 6 -5 10 -11 10 -5 0 -7
-4 -4 -10z"/>
<path d="M56 722 c-3 -5 1 -9 9 -9 8 0 15 4 15 9 0 4 -4 8 -9 8 -6 0 -12 -4
-15 -8z"/>
<path d="M1605 609 c-4 -6 -5 -12 -2 -15 2 -3 7 2 10 11 7 17 1 20 -8 4z"/>
<path d="M1573 595 c0 -8 4 -12 9 -9 5 3 6 10 3 15 -9 13 -12 11 -12 -6z"/>
<path d="M1626 602 c-3 -5 1 -9 9 -9 8 0 12 4 9 9 -3 4 -7 8 -9 8 -2 0 -6 -4
-9 -8z"/>
<path d="M255 589 c-4 -6 -5 -12 -2 -15 2 -3 7 2 10 11 7 17 1 20 -8 4z"/>
<path d="M294 569 c-3 -6 -3 -13 0 -16 3 -4 6 0 6 8 0 12 2 12 9 0 5 -8 11 -9
15 -3 3 5 -1 12 -9 16 -8 3 -17 1 -21 -5z"/>
<path d="M413 548 c-2 -16 1 -18 10 -9 7 7 8 14 1 21 -6 6 -10 2 -11 -12z"/>
<path d="M505 552 c-3 -8 -3 -17 0 -20 3 -3 5 0 5 5 0 6 11 10 25 9 13 -2 22
0 20 5 -3 4 1 9 7 12 7 3 -1 5 -19 4 -19 0 -34 -6 -38 -15z"/>
<path d="M785 560 c4 -6 11 -8 16 -5 14 9 11 15 -7 15 -8 0 -12 -5 -9 -10z"/>
<path d="M899 558 c14 -19 32 -15 30 5 0 8 -2 8 -6 -1 -4 -10 -8 -10 -21 0
-15 12 -16 11 -3 -4z"/>
<path d="M946 561 c-3 -5 3 -11 13 -14 14 -3 18 -1 14 9 -6 16 -19 18 -27 5z"/>
<path d="M993 550 c1 -14 4 -16 14 -9 7 6 17 8 22 4 6 -3 9 0 6 7 -9 22 -44
20 -42 -2z"/>
<path d="M1230 559 c0 -5 -4 -8 -8 -5 -5 3 -9 -1 -9 -9 0 -8 4 -15 9 -15 4 0
8 5 8 11 0 6 7 9 14 6 10 -4 13 -1 9 9 -6 16 -23 19 -23 3z"/>
<path d="M1271 554 c5 -6 5 -15 1 -20 -4 -4 1 -2 10 5 9 7 23 9 29 5 8 -4 9
-3 5 4 -9 15 -1 15 24 2 13 -7 21 -7 26 2 4 7 3 8 -4 4 -7 -4 -12 -3 -12 1 0
5 -20 9 -44 9 -31 -1 -42 -4 -35 -12z"/>
</g>
</svg>
